<svg version="1.1" id="Layer_1" xmlns="http://www.w3.org/2000/svg" xmlns:xlink="http://www.w3.org/1999/xlink" x="0px" y="0px"
	 width="100%" viewBox="0 0 608 704" enable-background="new 0 0 608 704" xml:space="preserve">
<path fill="#000000" opacity="1.000000" stroke="none" 
	d="
M269.573792,615.582520 
	C250.895203,610.719727 232.419922,606.783203 213.810089,603.723816 
	C201.586044,601.714233 189.222351,600.352722 176.838837,599.226501 
	C162.749008,597.945129 148.617340,598.144287 134.569046,597.157959 
	C111.921585,595.567810 93.257614,603.965637 75.864456,617.124512 
	C70.168816,621.433655 66.057640,627.559937 59.400436,631.030762 
	C54.717251,628.375244 52.015007,623.669434 48.595337,619.682068 
	C46.908558,617.715271 48.441574,616.292419 49.782452,615.013245 
	C54.950764,610.082642 60.048870,605.071350 65.367561,600.307129 
	C73.025162,593.447754 81.024460,586.963867 88.571823,579.988586 
	C104.925232,564.874634 122.407066,550.924072 137.326981,534.327454 
	C153.660751,516.158142 164.873901,495.337799 167.677139,470.631104 
	C170.403641,446.600739 169.541199,422.469666 169.635544,398.365692 
	C169.644547,396.070190 169.044220,394.396088 166.351349,394.399658 
	C148.680069,394.423096 131.119797,395.369354 114.685112,402.763245 
	C104.218887,407.471924 96.106949,415.078674 90.672211,425.148285 
	C87.873283,430.334229 84.137840,427.951111 80.792831,427.114410 
	C77.216988,426.219971 79.194283,423.240356 79.282478,420.926483 
	C79.751915,408.610046 81.618637,396.485107 84.706711,384.597595 
	C89.705986,365.352966 97.720993,347.787872 112.721069,333.891998 
	C126.771591,320.875763 143.114426,314.089294 162.155060,313.666473 
	C169.630722,313.500458 169.469788,313.624847 169.684860,306.339508 
	C170.061646,293.576294 168.235931,280.696289 171.550186,268.079926 
	C175.548355,252.860153 182.865509,239.557144 193.746185,228.068390 
	C206.158081,214.962860 219.740250,203.343262 234.801163,193.409882 
	C236.317581,192.409744 238.582596,191.757080 238.519669,188.902817 
	C233.576935,187.852646 229.046341,189.922516 224.501862,190.891388 
	C205.469360,194.949066 186.352905,198.204910 166.813217,197.306717 
	C149.035980,196.489548 133.168610,190.253754 119.216263,179.226654 
	C94.262024,159.504318 79.718437,132.624344 67.809784,103.997597 
	C64.500999,96.043732 61.665340,87.890602 58.711029,79.792984 
	C57.575310,76.680046 62.098618,68.003319 65.277740,67.172256 
	C67.838997,66.502708 68.642487,68.640167 69.657288,70.342796 
	C76.428413,81.703270 84.561562,91.885857 95.142525,99.981621 
	C110.751892,111.924706 128.461334,117.925362 147.954651,119.761719 
	C171.009460,121.933586 193.579742,118.516113 216.143112,114.875664 
	C246.692673,109.946693 277.243561,104.987221 307.688324,99.459480 
	C333.345276,94.801041 359.193024,93.653572 385.079620,94.823341 
	C410.002777,95.949570 434.284271,100.850929 457.514648,110.606850 
	C473.994934,117.527939 488.690948,127.128204 501.423309,139.347992 
	C514.312256,151.718033 524.042358,166.590469 531.382507,183.011841 
	C539.441895,201.042023 544.084290,219.979355 546.999023,239.379700 
	C548.202820,247.391891 549.222717,255.524887 549.247314,263.606201 
	C549.431763,324.100800 549.721313,384.599670 549.162292,445.089661 
	C548.935730,469.602509 540.978210,492.384247 528.535583,513.486572 
	C519.168945,529.372131 507.050873,543.068726 493.519104,555.442566 
	C475.972748,571.487488 456.510071,585.034729 436.456940,597.751587 
	C413.017151,612.616028 388.634003,625.838623 364.437012,639.391357 
	C360.416199,641.643433 356.673645,641.548645 352.500488,640.200500 
	C325.187531,631.377197 297.801147,622.792847 269.573792,615.582520 
M446.123230,562.616211 
	C447.328735,560.449158 448.687958,558.406799 449.694519,556.084229 
	C458.999084,534.613586 460.841949,511.688904 461.411194,488.878723 
	C462.304626,453.079468 461.658447,417.241547 461.634399,381.419983 
	C461.630768,376.019867 460.640259,375.361664 455.832733,377.583466 
	C449.494965,380.512451 443.260254,383.665649 436.908020,386.561920 
	C411.529144,398.133209 386.103210,409.601410 360.731476,421.188354 
	C342.761139,429.395111 324.917480,437.884094 306.854614,445.879517 
	C303.287537,447.458435 302.258209,449.274109 302.278442,452.899109 
	C302.403900,475.390961 302.291809,497.884125 302.375366,520.376404 
	C302.393219,525.175415 300.600769,530.810608 303.154816,534.566528 
	C305.927063,538.643311 312.153717,537.795898 316.902649,538.984985 
	C353.869232,548.241272 390.511139,558.663696 426.975586,569.713074 
	C438.319672,573.150513 438.274902,573.299255 445.511810,563.678528 
	C445.610779,563.546997 445.671326,563.386536 446.123230,562.616211 
M302.333984,193.503647 
	C302.333984,249.802811 302.333984,306.101959 302.333984,362.893219 
	C304.351929,362.403961 305.026245,362.351105 305.601715,362.084717 
	C319.933197,355.450897 334.263123,348.813538 348.574707,342.136902 
	C364.394287,334.756775 380.170471,327.283264 396.010742,319.947937 
	C416.357544,310.525757 436.727905,301.153534 457.143005,291.880554 
	C460.497070,290.357056 461.961334,288.238037 461.681946,284.541382 
	C460.571075,269.843445 459.499115,255.141098 455.596680,240.842758 
	C448.947693,216.481491 435.789825,197.234100 412.540680,185.769913 
	C394.471619,176.860046 374.995636,173.725525 355.299530,172.578339 
	C339.449341,171.655151 323.459656,171.464478 307.624176,174.246155 
	C303.888611,174.902344 302.315796,176.399384 302.349579,180.011154 
	C302.388550,184.175735 302.343231,188.341080 302.333984,193.503647 
M269.842682,184.313171 
	C261.236450,191.450439 258.266571,200.827637 258.292023,211.730927 
	C258.407898,261.379761 258.479767,311.029633 258.270691,360.677856 
	C258.197876,377.966522 258.848450,395.243988 257.518433,412.561798 
	C255.501373,438.824890 244.791031,461.092102 228.242172,480.908905 
	C216.179550,495.353607 202.325775,507.987793 187.553268,519.629578 
	C183.421936,522.885376 179.450302,526.343872 175.405411,529.709412 
	C178.080139,529.598022 180.328888,529.004822 182.487549,528.176819 
	C195.194656,523.302612 208.249466,520.213745 221.924240,521.749329 
	C238.653931,523.627991 255.313919,526.022522 271.860504,529.249390 
	C276.875275,530.227356 281.880981,532.391296 287.649261,531.397644 
	C287.649261,528.653015 287.649292,526.174438 287.649292,523.695923 
	C287.649048,411.568909 287.648834,299.441895 287.647461,187.314880 
	C287.647461,185.982071 287.688995,184.645996 287.613159,183.317032 
	C287.336700,178.470322 286.006989,177.539566 281.200623,178.908127 
	C277.352631,180.003830 273.631714,181.413666 269.842682,184.313171 
M351.060272,355.573608 
	C336.148407,362.514435 321.270966,369.531036 306.296112,376.333160 
	C303.247894,377.717773 302.236359,379.537872 302.270233,382.816772 
	C302.425049,397.807892 302.323639,412.801483 302.364349,427.794098 
	C302.368195,429.210480 301.866211,430.817596 303.853485,432.506622 
	C310.925385,429.308289 318.316895,426.034424 325.649872,422.634338 
	C340.418457,415.786621 355.129547,408.814697 369.910492,401.993958 
	C399.027740,388.557709 428.158905,375.151123 457.337280,361.848419 
	C460.523224,360.395966 461.756317,358.491760 461.716187,354.980225 
	C461.550659,340.489136 461.661896,325.995056 461.606781,311.502350 
	C461.600769,309.918884 462.122589,308.138763 460.611359,306.729309 
	C458.722290,306.123169 457.045929,307.164642 455.481262,307.874176 
	C439.303040,315.210785 423.178040,322.664673 407.031250,330.070679 
	C388.620087,338.515320 370.201904,346.944519 351.060272,355.573608 
z"/>
</svg>